# xmcd
#
# Track frame offsets:
#	150
#	19401
#	41056
#	63548
#	86249
#	103210
#	120611
#	142124
#	158055
#	180422
#	201804
#	219794
#	239045
#	254505
#	270441
#	291826
#	308651
#
# Disc length: 4400 seconds
#
# Revision: 0
# Processed by: cddbd v1.5.2PL0 Copyright (c) Steve Scherf et al.
# Submitted via: EasyCDDAExtractor 15.3.0.1
#
DISCID=01112e11
DTITLE=Jerry Rivera - Personalidad
DYEAR=2015
DGENRE=Latin
TTITLE0=Amor De Novela
TTITLE1=Bailando
TTITLE2=Cara De Niño
TTITLE3=Que Hay De Malo
TTITLE4=Casi Un Hechizo
TTITLE5=Cuenta Conmigo
TTITLE6=Me Estoy Enloqueciendo Por Ti
TTITLE7=Me Estoy Enamorando
TTITLE8=Ya No Soy El Niño Aquel
TTITLE9=Vuela Muy Alto
TTITLE10=Esa Niña
TTITLE11=Amor De Novela
TTITLE12=Suave
TTITLE13=Ese
TTITLE14=No Me Puedes Dejar Asi
TTITLE15=Magia
TTITLE16=Dime
EXTD=
EXTT0=
EXTT1=
EXTT2=
EXTT3=
EXTT4=
EXTT5=
EXTT6=
EXTT7=
EXTT8=
EXTT9=
EXTT10=
EXTT11=
EXTT12=
EXTT13=
EXTT14=
EXTT15=
EXTT16=
PLAYORDER=
